<?xml version="1.0" standalone="no"?>
<!DOCTYPE svg PUBLIC "-//W3C//DTD SVG 20010904//EN"
 "http://www.w3.org/TR/2001/REC-SVG-20010904/DTD/svg10.dtd">
<svg version="1.0" xmlns="http://www.w3.org/2000/svg"
 width="1200.000000pt" height="1200.000000pt" viewBox="0 0 1200.000000 1200.000000"
 preserveAspectRatio="xMidYMid meet">
<metadata>
Created by potrace 1.14, written by Peter Selinger 2001-2017
</metadata>
<g transform="translate(0.000000,1200.000000) scale(0.100000,-0.100000)"
fill="#000000" stroke="none">
<path d="M0 6000 l0 -6000 6000 0 6000 0 0 6000 0 6000 -6000 0 -6000 0 0
-6000z m6398 4813 l82 -6 53 -66 c217 -268 522 -825 807 -1471 40 -91 75 -167
78 -170 2 -3 1 279 -3 626 l-7 631 47 7 c194 26 402 -20 567 -126 76 -48 148
-116 148 -139 0 -21 -538 -1120 -555 -1134 -7 -6 -83 -23 -170 -40 l-158 -29
-141 147 c-249 258 -637 619 -967 899 -410 348 -902 517 -1554 535 l-220 6 45
19 c165 71 561 183 819 233 352 68 835 101 1129 78z m-1544 -553 c123 -18 296
-59 509 -119 73 -20 123 -49 204 -119 54 -46 187 -192 181 -198 -5 -5 -509
-74 -539 -74 -15 0 -29 4 -31 10 -4 12 -153 51 -288 75 -145 26 -472 32 -638
11 -319 -41 -669 -165 -912 -323 -41 -26 -88 -55 -105 -63 l-30 -14 30 -4 c17
-1 71 11 120 27 231 77 427 111 642 111 225 0 407 -37 596 -120 134 -59 345
-205 325 -226 -3 -3 -29 -20 -58 -38 l-51 -33 -91 18 c-163 31 -327 42 -541
36 -411 -12 -750 -99 -1107 -284 -125 -64 -344 -204 -410 -262 -35 -30 -35
-30 -10 -31 14 0 85 27 158 60 344 156 685 230 928 202 55 -7 116 -17 138 -23
l38 -11 -146 -58 c-765 -308 -1374 -896 -1827 -1765 -175 -336 -340 -759 -440
-1127 -13 -48 -27 -82 -30 -75 -4 6 -15 71 -25 142 -15 105 -19 193 -18 455 0
369 8 433 89 754 151 598 412 1155 773 1650 379 519 912 1003 1447 1313 95 56
258 96 515 127 94 11 471 -3 604 -24z m3507 -346 c136 -40 272 -142 354 -267
l38 -57 -39 -88 c-39 -86 -121 -228 -159 -274 -15 -18 -47 -30 -135 -52 -130
-32 -305 -97 -430 -162 -46 -24 -85 -42 -87 -40 -6 6 67 255 103 351 71 192
273 605 294 605 4 0 31 -7 61 -16z m-2454 -558 c266 -77 495 -198 706 -375 69
-57 79 -71 93 -118 9 -30 13 -60 11 -67 -8 -21 -143 -50 -232 -51 l-81 0 -109
71 c-174 113 -299 170 -422 194 -51 9 -58 7 -190 -46 -147 -59 -284 -127 -379
-190 -131 -86 -230 -217 -222 -296 3 -31 6 -33 66 -49 133 -35 388 -179 527
-298 74 -63 149 -150 195 -227 32 -54 35 -64 35 -139 0 -76 -4 -89 -67 -245
-98 -243 -162 -460 -210 -715 -31 -165 -33 -509 -4 -625 26 -104 31 -111 46
-64 32 98 107 221 216 356 129 159 274 440 342 663 86 281 101 539 47 798 -13
61 -27 123 -31 137 l-8 25 28 -19 c16 -10 81 -47 145 -82 l116 -64 86 0 c92 0
176 12 251 36 l47 15 -77 107 c-43 59 -88 121 -100 139 l-22 32 97 -2 c54 -1
109 1 123 5 17 5 70 63 155 169 72 89 133 167 137 172 4 7 25 6 62 -3 51 -12
66 -11 166 10 130 26 130 26 347 -45 351 -116 608 -282 732 -474 22 -35 41
-62 41 -60 0 2 -9 54 -19 115 -14 87 -24 119 -44 146 -59 77 -202 177 -363
255 l-97 47 -28 64 c-35 77 -35 76 -7 114 38 54 302 159 478 189 140 24 376
10 397 -23 11 -19 5 -112 -12 -185 -28 -123 -65 -233 -78 -233 -7 0 -114 47
-238 105 -138 65 -236 105 -256 105 -18 0 -51 -7 -73 -16 l-40 -16 127 -74
c270 -158 506 -372 599 -544 16 -30 19 -58 19 -210 l0 -175 106 -56 c58 -31
164 -93 235 -139 171 -110 539 -349 639 -416 263 -175 481 -412 574 -627 19
-42 32 -79 30 -82 -3 -2 -25 3 -49 12 -71 26 -234 22 -340 -7 -195 -54 -479
-21 -683 81 -33 16 -61 29 -64 29 -3 0 -4 -35 -1 -79 5 -91 31 -144 97 -204
47 -42 52 -43 87 -21 17 11 38 15 67 12 98 -11 167 -67 287 -232 57 -78 96
-121 119 -132 l34 -16 -6 -82 c-20 -271 -185 -467 -538 -635 -121 -58 -357
-146 -367 -137 -2 3 -19 -6 -37 -19 -36 -28 -60 -33 -51 -10 3 8 9 22 13 31
10 25 -31 9 -107 -42 -36 -24 -71 -44 -77 -44 -18 0 -16 25 3 61 8 17 14 32
12 33 -2 2 -28 7 -58 12 l-55 10 -86 -78 c-88 -79 -105 -89 -115 -64 -8 22 18
75 74 149 29 37 52 69 52 71 0 2 -34 6 -76 10 -74 6 -78 5 -143 -31 -52 -28
-73 -35 -95 -29 l-27 7 49 93 49 93 -23 39 c-13 22 -25 43 -27 47 -1 4 -85
-26 -186 -67 l-184 -75 -78 27 -78 27 92 22 c111 27 231 85 312 150 l60 49 6
95 c4 53 12 106 19 119 7 13 59 83 116 156 82 106 99 134 86 138 -9 3 -195 44
-412 91 -217 47 -413 94 -436 104 -55 26 -155 120 -212 199 l-46 64 -57 -6
c-61 -6 -163 -41 -215 -72 l-31 -19 72 -380 c40 -209 68 -381 64 -383 -20 -8
-142 32 -229 75 -74 36 -110 62 -166 117 -77 77 -99 112 -145 239 -16 45 -47
111 -69 147 -42 72 -114 158 -124 149 -16 -16 -46 -123 -57 -204 -28 -217 27
-497 139 -705 107 -200 102 -193 513 -582 177 -166 324 -314 348 -348 51 -72
95 -165 117 -245 16 -58 32 -275 21 -275 -9 0 -872 694 -986 793 -123 107
-176 172 -236 288 -105 204 -154 422 -162 730 -9 311 30 630 122 996 25 98 45
193 45 212 0 35 -23 71 -45 71 -14 0 -108 -194 -181 -377 -239 -596 -320
-1175 -223 -1598 25 -107 97 -265 175 -382 63 -95 198 -241 276 -300 232 -174
412 -296 793 -537 527 -333 552 -350 670 -448 123 -103 179 -166 220 -252 97
-201 91 -428 -17 -688 -77 -185 -322 -522 -520 -714 -66 -65 -586 -459 -594
-451 -2 2 17 54 42 116 142 353 216 948 174 1396 -47 500 -344 973 -830 1320
-442 317 -801 740 -915 1078 -43 130 -59 253 -59 475 -1 111 -3 202 -6 202
-28 0 -200 -230 -282 -376 -35 -62 -67 -113 -71 -114 -11 0 -88 166 -127 275
-156 441 -102 868 149 1172 l54 66 -56 -6 c-140 -17 -377 -120 -567 -246 -58
-38 -106 -66 -108 -61 -4 12 45 210 80 320 35 110 105 277 150 358 89 160 217
320 320 400 l53 41 290 -30 c160 -16 302 -29 317 -29 22 0 36 11 63 48 19 26
35 49 35 52 0 3 -127 47 -282 99 -426 141 -583 222 -738 380 -85 86 -136 164
-160 248 -12 39 -11 46 22 115 49 103 170 259 285 368 210 198 512 357 848
445 50 13 91 24 92 25 1 0 55 -15 120 -34z m-2247 -1364 c0 -5 -20 -87 -44
-183 -102 -401 -174 -843 -205 -1259 -18 -239 -24 -539 -12 -660 40 -438 285
-926 584 -1165 93 -74 155 -108 191 -103 23 3 22 5 -39 106 -200 327 -332 700
-392 1107 -13 89 -17 186 -18 380 0 277 9 386 51 594 46 231 91 361 123 361 5
0 11 -46 15 -102 9 -126 27 -252 62 -423 133 -661 475 -1221 1109 -1819 88
-83 304 -279 480 -436 463 -412 790 -738 943 -941 86 -114 171 -323 207 -509
79 -415 -41 -917 -325 -1354 l-58 -89 -6 64 c-3 35 -13 181 -22 324 -8 143
-22 303 -31 355 -33 202 -133 435 -271 630 -37 53 -125 153 -197 225 -101 101
-662 588 -1306 1134 -22 18 -43 31 -46 28 -3 -4 26 -50 64 -104 38 -54 126
-177 194 -273 232 -328 385 -516 545 -672 284 -276 491 -578 578 -843 74 -227
76 -465 4 -680 -26 -79 -82 -193 -123 -251 -32 -45 -34 -46 -39 -23 -49 220
-82 313 -171 489 -85 165 -221 361 -341 491 -22 24 -89 84 -149 134 -303 249
-610 529 -699 639 -111 136 -163 251 -281 619 -45 139 -63 182 -83 197 -14 11
-30 19 -36 17 -22 -7 -50 -172 -74 -432 -20 -228 -17 -225 -137 -139 -176 126
-340 274 -473 429 -301 351 -489 780 -548 1255 -19 152 -18 464 2 605 26 184
27 194 21 209 -5 13 -15 11 -58 -15 -236 -138 -452 -420 -599 -775 -27 -68
-60 -159 -73 -203 -12 -45 -26 -79 -32 -78 -19 6 -26 162 -22 472 5 333 16
447 67 705 169 847 643 1492 1355 1841 120 58 282 127 308 128 4 1 7 -3 7 -7z
m6607 -2179 c-5 -132 -15 -189 -49 -307 -17 -59 -30 -81 -86 -142 -36 -40 -89
-107 -118 -149 -55 -80 -64 -81 -64 -4 0 28 13 62 50 126 54 93 83 164 106
253 17 69 34 182 34 237 0 40 3 44 53 77 82 54 81 55 74 -91z m-472 -760 c13
-73 69 -179 155 -293 104 -137 110 -148 110 -194 0 -76 -103 -346 -133 -346
-6 0 -46 6 -87 14 -156 30 -364 48 -619 55 l-264 6 -27 66 -27 65 163 186 163
186 193 102 c106 57 227 122 268 146 41 23 80 43 86 43 7 1 15 -16 19 -36z
m-867 -1722 c56 -84 122 -227 122 -266 0 -88 -207 -522 -360 -752 -178 -269
-413 -533 -650 -732 -112 -94 -241 -191 -254 -191 -4 0 24 46 62 103 90 134
173 278 262 457 40 80 105 197 145 260 276 440 432 846 465 1211 5 63 10 121
10 129 1 23 134 -125 198 -219z"/>
<path d="M7711 8201 c139 -92 259 -245 262 -335 1 -43 -14 -62 -61 -76 -20 -7
-107 -46 -192 -88 -149 -74 -157 -77 -226 -77 -70 0 -72 -1 -56 -19 27 -29 68
-46 115 -46 34 0 49 -6 68 -26 31 -34 132 -106 188 -134 58 -29 138 -24 234
15 l69 27 87 -60 c73 -51 99 -63 151 -71 65 -11 109 -38 96 -60 -4 -6 -35 -11
-69 -11 l-62 -1 29 -16 c16 -8 70 -30 120 -48 50 -17 111 -44 135 -59 54 -34
135 -117 151 -154 7 -17 59 -60 143 -118 l132 -91 97 -6 c109 -6 124 1 134 64
6 33 4 35 -45 59 -87 43 -698 458 -721 490 -20 28 -25 30 -88 30 -64 0 -72 3
-187 68 -91 51 -121 73 -123 90 -3 21 0 22 64 22 53 0 65 3 56 12 -29 29 4 96
57 118 l29 12 -38 51 c-21 28 -76 116 -122 195 -70 124 -87 147 -118 160 -101
43 -347 132 -364 132 -13 0 8 -18 55 -49z m80 -638 c23 -27 101 -73 125 -73
36 0 37 -17 3 -24 -56 -11 -93 -6 -144 18 -83 39 -104 76 -50 89 38 9 53 7 66
-10z"/>
<path d="M7322 7341 c-71 -25 -77 -31 -62 -75 25 -78 137 -199 227 -245 21
-11 21 -9 -6 36 -49 81 -49 85 15 127 50 34 59 36 86 27 47 -17 128 -13 174 8
58 26 64 41 13 30 -56 -13 -95 0 -182 60 -71 49 -75 51 -143 51 -40 -1 -91 -8
-122 -19z"/>
</g>
</svg>
